<svg width="20" height="20" viewBox="0 0 20 20" fill="none" xmlns="http://www.w3.org/2000/svg">
<path d="M18.125 17.2412L13.405 12.5211C14.5392 11.1595 15.1047 9.41299 14.984 7.64496C14.8633 5.87693 14.0657 4.22349 12.7569 3.02861C11.4482 1.83373 9.72922 1.18941 7.95753 1.22967C6.18585 1.26993 4.49788 1.99167 3.24479 3.24477C1.99169 4.49786 1.26994 6.18583 1.22968 7.95751C1.18942 9.7292 1.83375 11.4482 3.02863 12.7569C4.22351 14.0656 5.87695 14.8633 7.64498 14.984C9.413 15.1047 11.1595 14.5391 12.5212 13.4049L17.2412 18.125L18.125 17.2412ZM2.50003 8.12501C2.50003 7.01249 2.82993 5.92495 3.44801 4.99992C4.06609 4.0749 4.9446 3.35393 5.97243 2.92818C7.00027 2.50244 8.13127 2.39105 9.22241 2.60809C10.3136 2.82513 11.3158 3.36086 12.1025 4.14753C12.8892 4.9342 13.4249 5.93648 13.6419 7.02762C13.859 8.11877 13.7476 9.24977 13.3218 10.2776C12.8961 11.3054 12.1751 12.1839 11.2501 12.802C10.3251 13.4201 9.23755 13.75 8.12503 13.75C6.63369 13.7484 5.20391 13.1552 4.14938 12.1007C3.09484 11.0461 2.50168 9.61634 2.50003 8.12501Z" fill="white" fill-opacity="0.8"/>
</svg>
