<svg width="20" height="20" viewBox="0 0 20 20" fill="none" xmlns="http://www.w3.org/2000/svg">
<path d="M9.99999 4.075L11.725 7.5625L12.0125 8.1875L12.6375 8.28125L16.4875 8.8375L13.75 11.525L13.2812 11.9813L13.3937 12.6063L14.05 16.4375L10.6062 14.6312L9.99999 14.375L9.41874 14.6812L5.97499 16.4625L6.59999 12.6312L6.71249 12.0062L6.24999 11.525L3.48749 8.80625L7.33749 8.25L7.96249 8.15625L8.24999 7.53125L9.99999 4.075ZM9.99999 1.25L7.15624 7.0125L0.799988 7.93125L5.39999 12.4188L4.31249 18.75L9.99999 15.7625L15.6875 18.75L14.6 12.4188L19.2 7.9375L12.8437 7.0125L9.99999 1.25Z" fill="white"/>
</svg>
